<svg width="48" height="48" viewBox="0 0 48 48" fill="none" xmlns="http://www.w3.org/2000/svg">
<path d="M22.4996 45.9V42.15C17.9329 41.6833 14.1329 39.9333 11.0996 36.9C8.06628 33.8667 6.31628 30.0667 5.84961 25.5H2.09961V22.5H5.84961C6.31628 17.9333 8.06628 14.1333 11.0996 11.1C14.1329 8.06667 17.9329 6.31667 22.4996 5.85001V2.10001H25.4996V5.85001C30.0663 6.31667 33.8663 8.06667 36.8996 11.1C39.9329 14.1333 41.6829 17.9333 42.1496 22.5H45.8996V25.5H42.1496C41.6829 30.0667 39.9329 33.8667 36.8996 36.9C33.8663 39.9333 30.0663 41.6833 25.4996 42.15V45.9H22.4996ZM23.9996 39.2C28.1663 39.2 31.7413 37.7083 34.7246 34.725C37.7079 31.7417 39.1996 28.1667 39.1996 24C39.1996 19.8333 37.7079 16.2583 34.7246 13.275C31.7413 10.2917 28.1663 8.80001 23.9996 8.80001C19.8329 8.80001 16.2579 10.2917 13.2746 13.275C10.2913 16.2583 8.79961 19.8333 8.79961 24C8.79961 28.1667 10.2913 31.7417 13.2746 34.725C16.2579 37.7083 19.8329 39.2 23.9996 39.2ZM23.9996 31.5C21.8996 31.5 20.1246 30.775 18.6746 29.325C17.2246 27.875 16.4996 26.1 16.4996 24C16.4996 21.9 17.2246 20.125 18.6746 18.675C20.1246 17.225 21.8996 16.5 23.9996 16.5C26.0996 16.5 27.8746 17.225 29.3246 18.675C30.7746 20.125 31.4996 21.9 31.4996 24C31.4996 26.1 30.7746 27.875 29.3246 29.325C27.8746 30.775 26.0996 31.5 23.9996 31.5ZM23.9996 28.5C25.2663 28.5 26.3329 28.0667 27.1996 27.2C28.0663 26.3333 28.4996 25.2667 28.4996 24C28.4996 22.7333 28.0663 21.6667 27.1996 20.8C26.3329 19.9333 25.2663 19.5 23.9996 19.5C22.7329 19.5 21.6663 19.9333 20.7996 20.8C19.9329 21.6667 19.4996 22.7333 19.4996 24C19.4996 25.2667 19.9329 26.3333 20.7996 27.2C21.6663 28.0667 22.7329 28.5 23.9996 28.5Z" fill="#E7E7EB"/>
</svg>
